#!OML:ASF F:\VICON\USERDATA\INSTALL\rory3\rory3.ASF
:FULLY-SPECIFIED
:DEGREES
1
root 0.9059300000000003 18.0108 -8.370220000000003 -1.2631100000000008 -2.2166099999999984 -4.904810000000005
lfemur -22.47800000000001 -1.98311 -16.126900000000003
ltibia 24.508100000000006
lfoot -0.9870910000000048 -1.8538099999999988
ltoes -2.6229000000000067
rfemur 7.493329999999984 3.9481899999999985 29.810500000000005
rtibia 40.2771
rfoot -2.1158000000000046 -5.112149999999994
rtoes -11.413999999999973
lowerback -1.0 1.702179999999998 4.245819999999992
upperback -0.21628700000000012 2.828870000000003 1.61041
thorax -5.423290000000001 1.2985000000000013 -1.0963099999999975
lowerneck -15.321699999999998 -3.87264 -1.3601299999999996
upperneck 21.9611 -5.10244 0.16099599999999636
head 9.5019 -2.468749999999999 -0.3611240000000007
lclavicle 1.07623e-14 2.1916000000000045e-14
lhumerus -37.1023 13.991899999999976 79.1121
lradius 17.910099999999996
lwrist 3.316909999999994
lhand -29.1108 22.868300000000005
lfingers 7.12502
lthumb -2.45876 52.8338
rclavicle 1.07623e-14 2.1916000000000045e-14
rhumerus -23.360899999999994 -17.475999999999996 -80.1184
rradius 30.702400000000004
rwrist 0.3594480000000009
rhand -19.759900000000002 -1.0
rfingers 7.12502
rthumb 6.571619999999997 -5.111409999999998
2
root 1.0363900000000006 18.1271 -7.5820999999999685 -1.868609999999999 -2.8676599999999963 -4.0428999999999995
lfemur -19.031599999999994 -1.4580699999999993 -18.0163
ltibia 24.82580000000001
lfoot -2.420349999999993 -1.490350000000001
ltoes -0.09412550000001652
rfemur 2.7132400000000256 3.363550000000001 27.4798
rtibia 49.43890000000001
rfoot 10.954700000000035 -2.0732999999999917
rtoes 5.796329999999997
lowerback -1.0 1.77607 3.7833500000000013
upperback 0.06421379999999982 2.8572200000000034 1.4551300000000003
thorax -5.15392 1.3313899999999976 -0.9990310000000033
lowerneck -16.5069 -3.83875 -1.3809000000000005
upperneck 22.8414 -5.0589200000000005 0.19239899999999932
head 10.0379 -2.4324899999999996 -0.380033
lclavicle 3.6014200000000004e-14 9.442269999999996e-15
lhumerus -36.98389999999999 14.039499999999988 79.181
lradius 18.894500000000008
lwrist 1.6683099999999929
lhand -28.8916 17.687000000000005
lfingers 7.12502
lthumb -2.247039999999999 47.655
rclavicle 3.6014200000000004e-14 9.442269999999996e-15
rhumerus -24.47539999999999 -18.955200000000005 -79.5428
rradius 29.864
rwrist -0.15021900000000654
rhand -18.2587 -1.0
rfingers 7.12502
rthumb 8.02062 -5.68071
3
root 1.118919999999999 18.1911 -6.844870000000018 -2.229769999999999 -3.049219999999994 -2.0214500000000006
lfemur -16.12389999999999 -1.6275999999999993 -20.8756
ltibia 25.3452
lfoot -4.820830000000003 0.08190290000000111
ltoes 1.1691700000000154
rfemur -3.1982399999999807 2.5659299999999994 24.398599999999995
rtibia 59.28679999999996
rfoot 10.93389999999997 -2.2082000000000006
rtoes 12.074500000000008
lowerback -1.0 1.6486400000000023 1.6411400000000007
upperback -0.21728799999999981 2.4481099999999967 1.0342800000000019
thorax -5.80466 1.1708799999999993 -0.20395700000000194
lowerneck -16.046 -3.6339400000000004 -1.2671099999999988
upperneck 22.6622 -4.82125 0.24169999999999958
head 9.8832 -2.31276 -0.3376150000000004
lclavicle 6.066040000000009e-15 -2.25621e-14
lhumerus -37.36799999999999 11.126200000000006 80.6307
lradius 21.123400000000004
lwrist 4.707200000000006
lhand -29.1074 0.4983159999999742
lfingers 7.12502
lthumb -2.4554300000000007 30.463899999999985
rclavicle 6.066040000000009e-15 -2.25621e-14
rhumerus -26.369999999999994 -18.145900000000005 -79.3077
rradius 29.348999999999997
rwrist 0.42932500000000084
rhand -16.9796 -1.0
rfingers 7.12502
rthumb 9.25501 -5.753939999999997
4
root 1.1777799999999996 18.2128 -6.125009999999975 -2.67906 -2.7907300000000017 -0.9445109999999972
lfemur -12.312999999999997 -1.78786 -22.542300000000004
ltibia 24.042899999999992
lfoot -6.465129999999999 0.8926019999999908
ltoes 0.1710579999999906
rfemur -8.65862 1.0879 22.594800000000003
rtibia 66.63230000000001
rfoot 6.182800000000008 -5.796989999999999
rtoes 4.3661499999999975
lowerback -1.0 1.268329999999999 0.362543
upperback -0.00851996000000009 1.7869400000000004 0.934913999999999
thorax -5.85342 0.8813320000000003 0.5015490000000012
lowerneck -16.8115 -3.47225 -1.460880000000001
upperneck 22.3385 -4.60774 0.5635040000000016
head 9.92436 -2.19059 -0.17680800000000074
lclavicle 5.584610000000004e-15 -1.2125900000000006e-14
lhumerus -36.10769999999999 7.720790000000006 82.6729
lradius 22.837199999999996
lwrist 9.717010000000005
lhand -30.4267 8.019770000000028
lfingers 7.12502
lthumb -3.729499999999999 37.966900000000024
rclavicle 5.584610000000004e-15 -1.2125900000000006e-14
rhumerus -26.75350000000001 -17.398100000000007 -79.6294
rradius 28.3314
rwrist 2.8224400000000007
rhand -18.1641 -1.0
rfingers 7.12502
rthumb 8.11193 -7.41564
